<svg width="208" height="208" viewBox="0 0 208 208" fill="none" xmlns="http://www.w3.org/2000/svg">
<path d="M67.2745 133.266C70.8028 146.534 74.212 159.833 77.5001 173.16C78.8478 178.66 80.1384 184.435 81.5489 189.895C82.6489 193.579 83.0286 195.528 82.8761 199.299C82.7197 201.923 82.5365 204.546 82.3263 207.166C80.7677 205.604 77.4587 200.517 76.5704 198.431C76.0861 197.293 75.4047 194.421 75.0509 193.121L71.9688 181.601L63.1427 149.697C62.3782 146.728 61.5954 143.765 60.794 140.806C60.6151 140.138 60.0703 137.877 59.8448 137.435C59.8344 137.15 59.761 136.982 59.9395 136.87C61.8973 135.66 65.215 134.223 67.2745 133.266ZM89.8438 171.512C90.0185 172.455 89.9834 190.428 89.7335 191.291C89.7834 191.371 89.8345 191.439 89.8858 191.497C89.9373 191.555 89.9898 191.603 90.0431 191.645C90.283 191.836 90.5435 191.904 90.839 192.174C90.9374 192.264 91.0398 192.377 91.1466 192.523L91.4112 193.772C91.4869 194.035 91.4644 194.029 91.4288 194.276C91.0672 196.781 86.7227 195.779 87.5899 193.475C87.7795 192.616 88.1581 191.956 88.9669 191.553L89.3409 191.188L89.3204 190.636C89.217 187.091 89.0911 172.403 89.4298 171.559L89.6456 171.429L89.8438 171.512ZM115.801 161.019C115.96 161.765 115.786 162.398 115.708 163.206H115.709L115.847 164.128C116.561 168.701 117.663 172.796 118.529 177.37C119.105 180.036 120.857 187.187 120.809 189.699C120.61 189.951 120.737 189.879 120.436 189.929C119.036 190.178 114.894 190.094 113.276 190.09C109.378 190.104 105.481 190.081 101.585 190.023C103.433 185.34 106.624 179.333 108.856 174.745C110.432 171.503 112.534 166.623 114.227 163.651C114.891 162.658 115.012 161.997 115.637 161.002L115.801 161.019ZM93.9386 184.846C94.0752 184.859 94.2104 184.89 94.3419 184.94C94.7335 185.092 95.0273 185.425 95.127 185.832C95.1654 185.994 95.1776 186.152 95.1954 186.315C95.2167 186.62 95.2073 186.785 95.1915 187.092C94.0031 188.228 91.7812 187.667 92.7218 185.042C92.9762 184.954 93.2499 184.878 93.5255 184.849C93.6633 184.834 93.8018 184.832 93.9386 184.846ZM121.483 165.627C121.988 165.675 122.036 165.767 122.409 166.103C122.685 166.536 123.089 167.157 123.404 167.72C123.467 167.832 123.527 167.943 123.581 168.049C123.658 168.199 123.727 168.34 123.777 168.468C124.093 171.063 123.745 176.638 123.833 179.602L124.741 180.881C125.91 182.139 127.361 183.713 128.667 184.812C134.146 184.992 139.384 184.902 144.858 184.887C149.667 184.906 154.476 184.899 159.283 184.865C160.181 183.378 161.692 182.56 163.025 184.086C163.225 184.386 163.336 184.616 163.383 184.823C163.402 184.906 163.411 184.985 163.411 185.063C163.413 185.416 163.247 185.758 163.066 186.367H163.066C163.002 186.599 162.994 186.555 162.858 186.753C162.821 186.808 162.783 186.859 162.745 186.907C162.707 186.955 162.669 187 162.63 187.041L162.512 187.155C162.274 187.366 162.025 187.466 161.77 187.484C161.685 187.49 161.599 187.487 161.513 187.477C160.61 187.362 159.672 186.364 159.002 185.727L139.235 185.722C137.548 185.723 134.861 185.776 132.453 185.757C131.009 185.745 129.664 185.708 128.695 185.617C127.828 185.219 124.468 181.617 123.845 180.776C122.428 179.835 122.725 170.35 122.748 168.435C122.639 168.251 122.31 167.503 122.204 167.275C121.616 167.593 121.858 168.145 121.038 168.213C120.585 167.763 120.462 167.421 120.184 166.855C120.233 166.764 120.285 166.67 120.337 166.58C120.657 166.037 120.873 165.78 121.483 165.627ZM52.294 184.577C53.2995 184.454 54.6596 184.586 54.7921 185.837C54.6299 186.239 54.5369 186.274 54.2159 186.564C53.7884 185.939 53.6892 184.533 52.169 185.327C52.2445 185.817 52.2278 185.853 52.4532 186.313C53.0061 186.781 53.3194 186.47 53.879 186.808C53.1137 187.967 51.0331 186.572 52.294 184.577ZM79.1671 55.5634L94.0977 55.7412C95.6544 55.7527 100.48 55.6748 101.793 55.875C104.137 55.8382 106.397 55.9499 108.735 56.0751C108.143 57.2503 106.411 60.8651 105.78 61.7959C104.653 64.1924 103.253 66.7584 102.027 69.124L94.9757 82.4931C93.7998 84.6733 92.4266 86.9438 91.336 89.1396L92.381 91.0986C92.7283 91.7553 93.0751 92.4159 93.421 93.0791C94.4587 95.0682 95.4902 97.0845 96.5147 99.1162C97.5395 101.148 98.5576 103.196 99.5694 105.249C102.267 110.722 104.92 116.229 107.529 121.56L115.182 137.255C115.53 137.986 116.141 139.18 116.775 140.482C116.987 140.917 117.201 141.363 117.409 141.809C118.241 143.591 118.974 145.359 119.043 146.277L118.992 146.361C118.654 146.995 117.092 150.668 116.821 151.265C113.509 158.574 109.836 165.695 106.328 172.916L102.023 181.658C101.254 183.184 100.529 184.804 99.5655 186.207C97.4496 183.203 95.1864 178.319 93.503 174.962C90.408 168.793 87.0942 162.665 84.0138 156.506L80.6827 149.716C80.1578 148.627 79.5109 147.125 78.9024 146.122L78.9522 145.962L79.0382 145.696C79.7937 143.301 81.8264 139.687 83.0245 137.311C85.5363 132.335 88.0205 127.342 90.4757 122.337C91.1911 120.879 92.1771 119.24 92.8058 117.823L93.1183 117.678C93.1381 117.692 93.1606 117.712 93.1847 117.736C93.354 117.911 93.6236 118.34 93.9415 118.912C94.2141 119.403 94.5219 120 94.8331 120.632C95.1444 121.264 95.4595 121.932 95.7442 122.565C95.9339 122.987 96.1109 123.395 96.2647 123.766C96.5725 124.508 96.7888 125.107 96.837 125.396L96.8458 125.477C96.8557 125.667 96.7969 125.863 96.7511 126.048C96.3009 126.842 95.9356 127.728 95.5401 128.557C93.6711 132.474 91.7417 136.373 89.8292 140.269C89.094 141.767 88.0094 144.57 87.0909 145.825L87.5665 146.918L88.9864 149.86C91.3553 154.799 93.7359 159.896 96.172 164.848C97.1461 166.828 98.1291 168.785 99.1241 170.699C99.5694 170.275 102.121 164.52 102.562 163.639C104.701 159.373 106.785 155.031 108.901 150.751C109.71 149.115 110.628 147.55 111.383 145.895C110.361 142.472 107.18 136.788 105.586 133.498C101.843 125.717 98.0126 117.979 94.0958 110.284C92.2706 106.647 90.4609 103.248 88.7227 99.6171L87.9825 98.0449C87.2929 97.1355 84.5693 91.4042 83.9786 90.1845C85.1497 85.6284 88.4114 79.947 89.3517 75.5791C87.8663 72.2989 84.4194 68.8862 83.5226 65.2861C82.6532 70.0812 82.7547 75.8955 81.7862 80.7148C81.3342 88.117 77.7564 94.6041 74.3702 100.942C72.781 103.899 71.2284 106.876 69.712 109.871C68.4254 112.397 67.214 114.47 66.6036 117.256C66.0231 119.905 65.3262 122.558 64.7247 125.207C63.1319 126.703 60.2354 127.554 58.1407 128.684C57.3272 126.15 56.6341 124.251 55.5909 121.806C56.139 120.975 56.9316 119.853 57.3233 118.977C56.6093 116.309 53.4782 109.52 55.0509 107.402C56.2604 106.65 57.1842 106.919 57.7677 108.284C58.8377 110.788 59.1249 113.814 60.2696 116.283C62.7409 113.885 69.0393 96.2378 70.9737 92.2861C71.6398 90.4532 73.8988 87.7467 74.2794 85.9179C75.0202 82.3565 74.5057 78.2178 75.1778 74.666L75.1798 74.3291C75.2105 72.5499 75.5737 69.3925 75.7452 67.6972C76.0478 64.709 76.2685 60.9215 76.796 58.0419C76.834 57.6732 76.9107 57.2259 76.9962 56.7773C77.0818 56.3282 77.1765 55.8767 77.2491 55.5009L79.1671 55.5634ZM52.6856 173.446C55.3482 173.36 65.2948 173.102 67.3165 173.806L67.3722 173.933C66.1834 174.227 64.4861 174.095 63.2423 174.142C60.1218 174.256 55.8964 173.848 52.877 174.128C50.701 175.532 49.5322 178.109 47.7765 179.331C46.7583 180.015 42.674 179.793 41.2159 179.793L31.1261 179.769L30.2306 180.011C29.5283 181.044 29.0786 181.309 28.0216 181.911C26.4219 181.248 25.9643 180.825 26.2081 178.997C26.3667 178.323 26.4474 178.296 26.9688 177.791C27.5947 177.484 28.1046 177.418 28.5577 177.515C28.7083 177.547 28.8529 177.597 28.9933 177.662C29.1339 177.727 29.2707 177.808 29.4054 177.9C29.5401 177.993 29.6735 178.098 29.8067 178.212C29.94 178.326 30.0738 178.45 30.2101 178.58C30.346 178.71 30.4847 178.847 30.628 178.986C30.8125 178.999 31.0888 179.006 31.3546 179.028C31.4208 179.034 31.4865 179.041 31.5499 179.049C31.6772 179.065 31.7959 179.086 31.8927 179.115C31.9396 179.13 31.9814 179.147 32.0167 179.165H32.0196C34.1196 179.226 45.8775 179.362 47.1788 178.945C47.9005 177.924 51.5557 174.15 52.6856 173.446ZM62.2179 179.836C62.831 177.561 65.4493 178.337 64.6895 180.591C64.6566 180.686 64.6135 180.791 64.5636 180.898C64.5137 181.006 64.4569 181.118 64.3985 181.229C64.2816 181.453 64.1566 181.676 64.0558 181.862C63.7532 181.702 63.5031 181.582 63.295 181.47C62.6714 181.134 62.419 180.871 62.2179 179.836ZM30.2638 179.437L30.2735 179.6C30.3739 179.637 30.4508 179.664 30.5157 179.685L30.2745 179.6L30.2638 179.436V179.437ZM120.495 151.281C121.683 150.812 123.774 150.844 125.042 151.066C126.411 151.307 126.976 152.005 127.662 153.128C127.904 158.913 127.638 164.9 127.741 170.701C127.77 172.296 127.702 173.81 127.805 175.416L128.691 176.755C130.232 177.505 134.845 177.261 136.688 177.255C139.804 177.239 142.92 177.243 146.035 177.266L157.344 177.269C159.226 177.264 162.511 177.37 164.24 177.019C165.168 176.017 165.062 176.03 166.307 175.545C167.626 176.038 168.424 176.429 168.319 178.064C168.236 178.24 168.148 178.412 168.055 178.583C167.468 179.644 167.419 179.077 166.307 179.394C165.143 177.918 165.273 178.002 163.213 177.901C161.27 177.795 158.223 177.896 156.185 177.878C150.545 177.824 144.904 177.804 139.264 177.816C136.741 177.822 130.567 178.191 128.559 177.244C128.102 176.909 127.656 176.453 127.461 175.912C126.691 173.781 127.089 161.917 127.101 158.543C127.105 157.078 127.257 155.42 126.978 153.983C126.768 152.908 126.421 152.522 125.527 151.913C124.497 151.807 120.915 151.849 120.362 151.495L120.495 151.281ZM83.087 175.809C83.9533 175.016 85.1037 175.098 85.3585 176.63C85.3707 176.704 85.3401 176.907 85.3009 177.114C85.2617 177.322 85.2145 177.536 85.1954 177.637L85.0802 177.735C84.6195 178.099 84.1466 178.142 83.7579 177.973C83.7257 177.959 83.6932 177.944 83.6622 177.927C83.5688 177.876 83.481 177.811 83.4005 177.736C83.3467 177.686 83.296 177.631 83.2491 177.571C83.2257 177.542 83.2032 177.51 83.1817 177.478C83.1388 177.415 83.0994 177.347 83.0645 177.275C83.0472 177.24 83.0309 177.202 83.0157 177.165C82.9852 177.09 82.9587 177.01 82.9376 176.929C82.927 176.888 82.9183 176.845 82.9102 176.803C82.8943 176.718 82.8832 176.631 82.878 176.541C82.8703 176.406 82.8746 176.266 82.8936 176.123C82.9 176.075 82.9085 176.027 82.9181 175.978L83.087 175.809ZM49.3868 166.801C50.0183 167.404 50.2993 167.649 50.8048 168.387C53.2198 168.488 64.3433 168.15 65.5763 168.84C64.3383 169.048 62.8497 169.026 61.588 169.015C58.2658 168.988 54.9238 169.053 51.6036 168.989L50.9532 169.058C50.5727 169.524 50.3904 169.648 49.881 169.99L49.6632 170.136C49.1841 170.46 48.7916 170.569 48.3067 170.673C48.1451 170.707 47.973 170.741 47.7843 170.782C47.6909 170.69 47.5998 170.597 47.5138 170.505C46.9109 169.856 46.5173 169.188 46.7257 168.224C46.9353 167.445 47.132 167.352 47.797 166.848L49.3868 166.801ZM82.6075 165.309C83.5647 165.587 84.0657 166.261 83.7843 167.253C83.1087 168.153 81.5755 168.105 81.3116 167.028L81.3976 166.933C81.9127 167.191 82.7328 167.54 83.296 167.296C83.4664 166.814 83.4059 166.648 83.0938 166.295C82.438 166.084 82.1408 166.42 81.3507 166.387L81.3448 166.103C81.707 165.672 82.0873 165.553 82.6075 165.309ZM155.889 161.815C157.451 162.025 157.81 161.798 158.144 163.516C158.163 163.93 158.258 164.567 157.932 164.852C157.153 165.534 155.743 166.053 154.911 165.224L154.867 164.944C155.465 164.387 156.854 164.117 157.673 164.158L157.809 163.989L157.796 163.931C156.703 161.895 156.05 163.027 154.527 162.515C154.942 162.139 155.366 162.023 155.889 161.815ZM122.134 146.805C123.061 146.149 130.37 146.406 131.807 146.574C133 147.38 133.536 147.843 133.777 149.28L133.789 149.35C133.884 150.526 133.962 158.314 133.759 159.256C133.801 160.365 133.827 160.967 134.026 162.047C134.309 162.361 134.998 163.128 135.361 163.206C136.731 163.494 138.672 163.432 140.081 163.427L148.357 163.382C150.852 163.366 153.24 163.211 155.681 163.72C154.568 163.937 153.104 164.067 151.931 164.045C146.527 163.937 140.903 164.354 135.536 163.838C133.188 163.612 133.198 161.203 133.187 159.345C133.071 157.613 133.069 151.012 133.323 149.532C132.978 148.346 132.67 147.978 131.599 147.279C130.014 147.187 122.877 147.402 122.134 146.805ZM56.2393 158.915C56.9387 158.885 57.3476 158.943 57.7882 159.486C57.9456 160.218 57.6898 160.735 57.4044 161.439C55.5395 161.591 54.9185 160.293 56.2393 158.915ZM169.076 156.935C169.284 156.951 169.31 156.978 169.512 157.044C169.645 157.68 169.6 157.962 170.017 158.482L169.824 158.81C169.359 158.467 168.82 158.243 168.564 157.825C168.576 157.427 168.806 157.249 169.076 156.935ZM97.0304 132.644C97.6292 133.401 97.3847 154.92 97.2247 157.642C96.7568 158.039 96.4403 158.346 95.8917 158.632L95.5987 158.505C95.4134 158.095 95.3072 157.905 95.2198 157.456L95.3897 157.272C95.828 157.306 95.9044 157.334 96.3429 157.245C96.7572 156.613 96.5219 153.79 96.5177 152.862C96.5246 149.985 96.5037 147.107 96.4542 144.231C96.4187 140.712 96.5644 136.565 96.2901 133.112C96.4842 132.777 96.5812 132.834 97.0304 132.644ZM101.574 132.476C101.974 133.027 101.806 136.198 101.801 137.126L101.779 150.086C101.779 151.759 101.68 155.521 101.944 156.98C102.632 157.434 103.032 157.515 102.994 158.348C102.631 158.376 102.298 158.372 101.941 158.287C101.622 158.212 101.291 158.009 101.152 157.702C100.992 157.346 100.842 133.712 101.224 132.315L101.574 132.476ZM77.5792 155.724C78.2867 154.994 79.4166 155.369 79.9952 156.077C80.696 157.396 79.0198 158.285 77.7452 157.801C77.0405 157.159 77.2295 156.504 77.5792 155.724ZM169.432 154.869C172.353 155.114 171.755 157.598 170.768 157.902C170.642 157.528 170.642 157.714 170.802 157.323C171.116 156.66 171.209 156.616 170.785 156.012C169.788 155.52 168.418 155.955 167.298 156.185C168.146 155.534 168.473 155.36 169.432 154.869ZM33.0382 156.146C33.0506 156.302 33.0048 156.432 32.9708 156.595C32.3741 157.246 31.8644 157.582 31.0099 157.813C30.8288 156.803 32.2468 156.517 33.0382 156.146ZM53.8546 149.937C55.6915 149.749 59.3219 149.758 61.0499 150.29L60.8155 150.325C58.8491 150.614 57.0258 150.414 55.172 150.55C52.6202 150.735 50.8512 154.493 48.795 156.015C47.1678 156.227 44.7841 156.15 43.0772 156.155C39.7497 156.188 36.4215 156.166 33.0948 156.091C32.8509 155.547 32.736 155.185 32.3263 154.757C28.7493 153.518 30.4441 156.603 30.1622 157.32L29.9347 157.229C29.5081 156.711 29.5625 156.04 29.5265 155.373C29.496 154.81 30.4284 154.166 30.8731 153.816C31.5314 153.925 31.9498 153.988 32.5919 154.193C32.9486 154.668 33.1619 154.941 33.5655 155.372C34.9892 155.523 38.2979 155.467 39.8253 155.451C42.5011 155.423 45.6857 155.548 48.3214 155.415C50.3158 153.892 52.2147 150.97 53.8546 149.937ZM125.73 130.319C126.665 130.361 126.971 131.153 127.694 131.611C128.143 131.896 129.568 132.49 129.854 132.774C131.793 134.7 133.845 136.934 135.71 138.916L147.856 151.689C148.958 152.85 151.362 155.719 152.522 156.395C155.751 156.629 158.984 156.49 162.218 156.494C164.091 156.495 166.025 156.366 167.867 156.702L167.908 156.818C165.989 157.313 154.731 157.134 152.354 156.965C151.067 156.088 148.37 153.094 147.159 151.811L135.346 139.279C133.402 137.245 129.961 133.148 127.518 132.285C127.413 132.604 127.368 132.87 127.324 133.201L127.132 133.448C125.318 133.854 122.972 132.322 124.424 131.042L124.698 130.8C125 130.55 125.376 130.303 125.73 130.319ZM55.9142 154.506C56.9211 154.431 61.944 154.146 62.4298 154.795L62.3097 155.223C61.1536 155.313 56.6945 155.572 55.9093 154.915L55.9142 154.506ZM91.8888 140.239C92.285 140.248 92.4828 140.203 92.7823 140.453C92.9749 141.528 92.8732 149.26 92.4972 150.379C91.2427 149.33 91.9735 142.15 91.8888 140.239ZM106.029 139.93C106.773 140.952 106.458 148.345 106.221 149.952C106.049 150.041 106.161 150 105.866 150.013C105.451 149.133 105.583 141.066 105.74 139.789L106.029 139.93ZM154.17 147.329C155.21 145.17 158.294 147.439 156.03 149.173L155.771 149.208C155.272 149.265 154.893 149.24 154.622 149.099C154.532 149.051 154.453 148.991 154.386 148.916C154.218 148.729 154.121 148.453 154.087 148.068C154.074 147.914 154.07 147.743 154.076 147.553L154.17 147.329ZM29.2423 135.954C30.4485 135.889 31.6262 135.992 31.9181 137.457C31.3694 138.183 29.8658 137.514 28.9142 137.718C28.3168 137.845 27.9745 138.003 27.4239 138.239C26.7009 138.533 25.763 138.885 25.0167 138.637C24.7834 137.344 28.2162 136.218 29.2423 135.954ZM72.3438 136.106C73.7171 134.861 75.6542 135.966 75.3624 137.502C73.5904 139.733 71.436 138.496 72.3438 136.106ZM71.7511 124.599C72.0372 124.601 72.1301 124.535 72.2491 124.716C72.8036 125.557 73.3748 127.942 73.2726 128.871C72.916 129.086 71.9693 129.327 71.5235 129.492C66.7764 131.25 62.3703 133.72 57.8614 135.996C56.0647 136.902 54.4741 137.905 52.5421 138.553C52.2817 136.966 51.8535 135.866 51.6026 134.489L51.6495 134.104C52.2912 133.419 69.3965 125.805 71.7511 124.599ZM29.586 132.986C32.3806 132.866 33.4745 134.313 35.1612 136.172C34.6556 136.524 33.989 136.91 33.4542 137.239C31.1905 134.587 30.5715 134.27 27.1925 135.664C25.7482 136.283 24.4019 137.111 23.1954 138.119C22.6146 137.774 22.0018 137.351 21.4327 136.977C23.1876 135.674 27.3917 133.447 29.586 132.986ZM147.155 105.312C147.691 105.381 148.536 105.464 148.989 105.877C152.884 109.419 156.622 113.561 160.163 117.474C160.223 117.539 160.303 117.665 160.378 117.79L160.56 118.106L160.556 119.359C160.526 123.385 160.383 134.311 160.926 134.896C161.325 135.324 162.118 135.41 162.675 135.465C165.381 135.731 168.304 135.52 171.031 135.515L187.55 135.464C188.678 135.46 192.926 135.316 193.682 135.614C194.118 135.64 194.273 135.691 194.647 135.466C194.901 135.425 195.052 135.401 195.177 135.405C195.219 135.407 195.258 135.411 195.296 135.419C195.449 135.451 195.598 135.541 195.923 135.714C196.344 136.082 196.21 135.968 196.842 136.078V136.077L196.783 135.935C195.816 133.511 194.836 134.689 192.869 135.299C194.44 133.614 195.681 133.027 197.127 135.029L197.268 135.231L197.244 135.475C197.104 136.697 196.62 137.97 195.039 137.709C194.583 137.634 193.758 137.364 193.489 136.974L193.565 136.845C193.42 136.156 193.398 136.208 192.795 135.989C191.24 136.17 188.627 136.103 186.984 136.105L176.97 136.114L168.099 136.131C158.07 136.158 160.098 136.472 159.882 126.272C159.851 124.85 159.706 120.149 159.993 119.014V119.013C159.698 117.36 150.697 108.739 149.132 106.872C148.913 106.61 148.071 106.257 147.72 106.119L146.935 106.019L147.155 105.312ZM28.6358 130.446C29.9222 130.359 32.7442 130.287 32.6808 132.105C32.0591 132.84 30.5133 132.163 29.3936 132.309C26.9993 132.621 24.5845 134.152 22.6046 135.349C21.9377 135.757 21.4954 136.091 20.7325 136.272C20.2525 136.186 19.6791 135.864 19.2686 135.599L19.2706 135.368C20.4125 134.186 25.5382 131.809 27.1642 130.847C27.4346 130.687 28.2956 130.511 28.6358 130.446ZM34.8556 131.2C35.7005 131.736 36.8877 133.658 37.4825 134.559L36.2589 135.546C35.7341 135.341 34.1528 133.049 33.6671 132.412L34.8556 131.2ZM26.4767 114.816C26.9536 114.591 27.5125 114.542 28.004 114.749C28.5917 114.996 28.9126 115.492 29.1524 116.055V116.056L29.1534 116.055C29.4221 116.65 29.6538 117.273 29.8683 117.903C30.0826 118.533 30.2806 119.171 30.4825 119.794L30.4815 119.796C31.099 123.015 31.3995 126.127 30.006 129.197C29.6567 129.636 28.8514 129.785 28.4171 129.477C28.3778 129.449 28.3413 129.416 28.3087 129.381C28.1778 129.238 28.1053 129.032 28.1319 128.756C28.2948 128.591 28.3617 128.509 28.4132 128.462C28.4475 128.431 28.4756 128.416 28.5206 128.401C28.5881 128.38 28.695 128.36 28.922 128.295L29.1554 128.099C29.2152 126.929 29.4304 125.831 29.4893 124.669C29.6136 122.218 28.4579 119.925 27.7452 117.543C27.6264 116.989 27.4538 116.739 26.9337 116.502L26.7579 116.635C26.3043 119.332 28.1716 121.216 28.3175 123.78C28.4326 125.808 27.8363 128.17 26.4444 129.653C25.1611 131.021 19.2106 134.494 17.67 134.557C17.1823 134.345 17.3444 134.511 17.1183 134.088C17.4109 133.136 20.2249 131.959 21.169 131.404C31.9086 125.102 23.5395 121.902 25.2384 116.271C25.4257 115.651 25.8879 115.094 26.4767 114.816ZM32.9142 121.359C33.4365 121.698 35.9095 126.665 36.4542 127.613C37.5275 129.481 38.4946 130.786 39.8126 132.475L38.6466 133.553C38.0618 133.346 37.4547 132.406 37.0108 131.826C36.4434 131.085 35.9264 130.306 35.464 129.496C34.7343 128.19 34.1283 126.692 33.4698 125.341C33.1649 124.715 31.7288 122.613 31.7979 122.089C32.0689 121.695 32.4689 121.573 32.9142 121.359ZM112.309 90.4433C113.004 90.8118 113.069 93.0908 113.165 93.8945L114.117 102.354C115.227 111.67 116.689 120.969 117.439 130.328C117.504 131.145 117.757 132.525 117.352 133.252C116.903 133.075 115.223 128.957 114.885 128.214C111.487 121.316 108.006 113.149 104.426 106.493C104.9 105.072 107.024 100.939 107.776 99.4746C109.23 96.6428 110.756 93.1638 112.309 90.4433ZM25.6954 122.493C25.8229 122.591 25.9244 122.747 26.0304 122.882C26.27 123.84 25.7517 125.506 25.3595 126.421C24.1885 129.152 21.0789 130.134 18.7276 131.629C18.0728 132.045 16.9416 132.967 16.337 133.189L15.3966 131.9C17.589 130.205 20.1671 129.556 22.2862 127.663C24.0121 126.122 23.9239 123.48 25.6954 122.493ZM82.5528 96.9843C83.5314 98.055 91.0168 112.048 91.0255 112.951C91.0268 113.119 90.985 113.308 90.9561 113.471C89.1701 117.443 87.3393 121.396 85.4649 125.327C84.5215 127.353 83.416 130.064 82.2989 131.916C81.7109 126.875 80.6537 122.102 79.8897 117.109C79.624 115.373 78.7701 111.107 79.0255 109.563C79.5768 106.235 80.7776 102.51 81.7667 99.1376L82.1749 97.7158L82.3643 97.0732L82.5528 96.9843ZM26.9522 112.101C28.6564 111.747 29.5614 112.259 30.919 113.126C32.1116 115.271 32.7346 118.465 33.0626 120.888C32.5244 120.665 32.1766 120.583 31.6085 120.435C31.1697 118.629 30.9434 116.498 30.0118 114.886C29.3079 113.649 27.2737 112.956 26.0909 113.886C24.0406 115.499 24.3925 118.263 24.0245 120.534C23.5067 123.728 22.765 126.274 20.0606 128.254C19.3044 128.812 18.4497 129.146 17.5821 129.51C16.6243 130.121 15.6532 130.709 14.671 131.279C14.3022 130.788 13.9006 130.432 13.839 129.901L13.961 129.776L14.211 129.596C14.4648 129.425 14.7303 129.281 15.004 129.15C15.369 128.976 15.7481 128.823 16.131 128.655L16.8634 128.18C20.4013 125.937 22.1287 125.541 22.7433 120.059C23.1162 116.731 22.8314 112.955 26.9522 112.101ZM32.1085 111.35C34.7901 113.725 34.7055 116.163 35.5069 119.451C35.753 120.461 36.2054 121.541 36.6065 122.502L36.4649 122.355C36.5025 122.394 36.5465 122.441 36.6056 122.502C38.3059 126.169 39.2858 126.632 41.1427 129.643C40.7776 130.194 40.5545 130.829 39.8604 130.664C38.3406 129.467 35.1891 124.381 34.6358 122.355V122.354C34.4964 122.063 34.3613 121.77 34.2296 121.476C33.9719 120.89 33.9709 120.809 34.1827 120.268C34.5015 120.064 34.645 120.003 34.8897 119.715L34.7804 119.375C34.6039 119.235 33.9763 118.747 33.9161 118.58C33.477 117.342 32.5609 113.151 31.8517 112.168L32.1085 111.35ZM32.0362 125.958C32.9154 126.279 34.2453 129.151 34.0763 130.001L33.6251 130.122C31.1302 129.634 30.7847 127.973 32.0362 125.958ZM27.4122 109.583C29.3284 109.371 30.7142 110.188 32.1085 111.35L31.8507 112.168C29.9466 111.193 28.221 110.491 26.0108 111.225C24.5622 111.719 23.3684 112.768 22.6925 114.141C21.3285 116.899 22.7013 119.769 20.5372 124.053L20.5362 124.052C19.1587 126.508 15.6413 127.961 13.0997 129.208C12.9811 128.528 12.7916 127.821 12.627 127.146C15.4602 125.95 16.8263 125.66 18.9698 123.477C20.9355 120.193 19.3754 115.636 22.0206 112.313C23.3619 110.629 25.3088 109.815 27.4122 109.583ZM164.778 126.054C165.334 125.902 165.924 126.108 166.264 126.572C166.574 126.997 166.608 127.544 166.392 127.993C166.34 128.1 166.274 128.202 166.194 128.295C166.16 128.335 166.122 128.375 166.082 128.412C165.658 128.799 165.039 128.887 164.525 128.63C164.011 128.374 163.708 127.826 163.765 127.254C163.821 126.683 164.224 126.205 164.778 126.054ZM26.7589 107.247C36.5588 106.377 36.8467 118.668 40.8321 124.623C41.4232 125.505 42.47 125.86 42.627 127.051C42.5349 127.573 42.1478 127.82 41.7393 128.188C37.0176 125.006 36.4897 117.959 34.7101 113.169C34.0556 111.408 31.6067 109.726 29.7911 109.112C27.7505 108.467 25.7099 108.706 23.8692 109.689C18.8958 112.346 20.1158 116.797 18.8448 121.289C17.9555 124.431 15.3239 125.005 12.5108 126.445C12.2472 125.852 11.9968 125.169 11.756 124.559C12.7428 124.125 14.6772 123.597 15.4991 123.003C19.1176 120.386 17.1171 115.201 19.5362 111.703C21.2719 109.194 23.8959 107.839 26.7589 107.247ZM116.748 49.2929C121.295 51.0766 125.624 53.238 130.083 55.2236C132.488 56.2946 135.336 57.7236 137.862 58.3876L138.096 58.3164C140.406 57.6062 142.636 56.3053 144.824 55.6308C150.948 53.7432 158.646 50.1073 164.813 53.2822C165.6 53.6953 166.348 54.1781 167.051 54.7236C167.031 55.4459 167.029 57.9879 166.869 58.4521C166.148 58.9505 165.173 57.8555 164.579 57.3584C163.981 57.648 162.396 58.5361 162.341 59.2597C161.856 65.5956 162.177 72.1316 162.174 78.5048C162.173 80.1388 163.243 80.965 164.456 81.8447C165.723 81.686 167.237 81.7652 168.529 81.748C169.901 81.7295 171.314 81.7089 172.684 81.7207C175.837 81.7474 179.028 81.5432 182.17 81.7978C183.179 81.8832 184.301 82.9417 185.042 83.583C184.272 83.8991 181.436 85.021 180.816 85.4169C181.036 86.6405 181.667 88.3332 182.072 89.5771C182.858 92.0433 183.67 94.5019 184.507 96.9511C185.32 99.3749 186.139 102.519 187 104.804L186.999 104.805C187.635 107.21 188.448 109.479 189.16 111.852C189.86 114.186 190.48 116.569 191.145 118.916C191.598 119.018 192.294 119.102 192.6 119.406L192.53 119.59L192.531 119.591C192.227 119.891 191.121 121.408 190.76 121.899C189.145 124.093 186.469 125.956 183.725 126.489C178.862 127.402 173.637 126.379 170.066 122.786C169.269 121.983 168.199 120.043 167.355 119.592L167.393 119.36C168.068 118.783 168.416 118.469 168.733 117.767C168.778 117.666 168.823 117.558 168.867 117.439L169.027 116.972C169.491 115.662 170.511 112.995 170.581 112.455L170.355 112.171C170.049 111.934 170.176 112.077 170.042 111.677C170.135 111.002 171.717 109.435 172.349 108.492C171.698 109.024 169.881 110.614 169.16 110.069C169.42 109.053 171.495 108.346 172.29 107.366L172.385 107.041C171.84 106.469 169.898 108.565 168.914 108.323L168.839 107.96C169.349 106.564 171.832 106.555 173.486 104.179L173.608 104.002C172.382 104.454 170.165 105.959 169.111 106.734C168.829 106.608 168.954 106.658 168.764 106.233C168.94 104.659 172.764 103.949 174.356 102.333L174.33 102.164C173.219 102.133 170.411 104.25 169.216 104.23L169.001 103.928C170.176 102.176 174.619 101.169 174.932 99.4902C174.395 99.7487 169.449 102.363 169.308 102.368C169.127 102.039 169.179 102.216 169.229 101.811C170.339 100.034 175.487 98.7846 175.812 97.6904C177.074 93.4184 178.913 89.2552 179.872 84.9169C178.362 85.0792 176.232 85.004 174.681 84.9863L174.584 84.8876L174.68 84.9863C171.031 85.0082 167.414 84.9357 163.753 84.9716C162.42 86.2606 161.289 87.7461 160.402 89.3759C159.298 87.7268 158.06 86.2595 156.53 84.9951C154.529 85.0016 141.977 84.8713 141.123 85.1728C141.344 85.7775 141.58 86.4756 141.846 87.0537L141.412 86.8203H141.411L141.846 87.0537C142.891 90.294 145.384 97.7538 145.997 100.965C148.057 101.031 151.026 100.899 152.91 101.03L153.959 100.947L154.387 100.549C154.83 100.13 155.32 99.7071 155.847 99.7812C158.198 100.113 157.637 103.867 155.313 103.009C153.999 102.524 154.989 101.848 152.79 101.725C151.178 101.747 147.871 101.844 146.4 101.66C146.459 102.249 146.939 104.812 147.154 105.312L146.935 106.019L147.719 106.119C147.519 106.931 149.174 111.411 149.451 112.548C149.955 114.614 150.882 116.843 151.416 118.938C151.968 119.244 152.143 119.216 152.404 119.675L152.358 119.885L152.044 120.342C148.765 124.981 144.622 127.18 138.768 126.427C134.123 125.829 131.602 123.217 128.88 119.727C129.39 119.734 129.855 119.736 130.297 119.735C129.855 119.736 129.39 119.733 128.88 119.727C128.784 119.633 128.846 119.705 128.769 119.462L129.079 119.19C129.204 119.073 129.189 119.095 129.316 118.933C129.861 118.232 133.564 107.404 133.717 106.281L133.72 106.204C133.095 106.263 129.803 106.288 129.328 106.231C127.093 105.966 117.339 106.632 116.058 106.004L115.981 105.735C116.692 105.154 131.692 105.66 134.011 105.396L134.228 104.708L134.457 103.964C134.683 103.245 134.905 102.582 135.194 101.829C130.901 101.797 126.605 101.791 122.31 101.811C120.606 101.814 117.456 101.908 115.898 101.735L115.854 101.598C116.243 100.372 133.405 101.741 135.452 100.988L135.538 100.951C135.749 99.743 136.627 97.3973 136.997 96.1503C138.031 92.6668 139.147 89.286 140.364 85.8613L140.444 85.4677L140.363 85.8613L140.262 85.5742C139.275 84.6918 137.196 84.2079 135.915 83.8593C138.99 80.8311 141.375 81.7474 145.311 81.6621C149.178 81.5782 153.101 81.7694 156.962 81.5986C157.649 81.0184 158.605 80.1917 158.708 79.2353C158.954 76.9467 158.875 74.5649 158.876 72.2548L158.935 61.6162C158.935 59.3702 159.169 58.0408 156.46 58.2519C155.91 57.9195 156.453 57.251 155.65 56.8779C153.454 57.089 143.093 64.168 139.914 65.6093L139.703 65.7041C134.801 64.8331 130.512 63.7959 125.781 62.2587C123.077 61.38 120.613 60.7624 118.04 59.3994C116.974 65.7169 115.502 75.3029 113.032 80.958L112.742 81.6337L102.286 102.863C101.789 101.637 100.873 99.8924 100.263 98.6464L95.381 88.8584C95.7988 87.7 96.8684 85.8926 97.4737 84.7353C99.0704 81.6208 100.727 78.5366 102.441 75.4853L102.779 74.9531L103.424 73.7246C106.678 67.5835 110.377 61.4535 113.594 55.3076C114.535 53.509 115.979 51.0543 116.748 49.2929ZM76.5616 123.445C77.6278 123.419 78.2704 123.853 78.2452 124.936C77.9852 125.445 77.908 125.469 77.4366 125.826C75.6443 126.346 74.6902 124.607 76.5616 123.445ZM27.4679 104.455C35.6048 104.368 39.3018 113.813 41.463 120.118C41.942 121.515 42.8784 122.867 43.3429 124.279C43.4837 124.707 43.4151 124.666 43.2227 125.015C42.2236 125.44 41.0951 123.581 40.7442 122.787C37.9935 116.56 37.3605 108.929 29.8399 106.409C29.445 106.33 29.0471 106.265 28.6476 106.214C24.0863 105.609 19.6985 108.724 17.9073 112.816C16.8489 115.236 17.5372 120.483 14.7159 122.434C13.9812 122.941 13.3178 123.317 12.4366 123.181C11.9569 122.856 12.1375 123.067 11.9181 122.483C12.294 121.792 14.5177 120.57 14.7423 119.881C15.898 116.325 15.4653 112.413 18.1134 109.376C20.4213 106.729 23.8774 104.76 27.4679 104.455ZM123.439 118.787C124.111 118.657 124.769 119.081 124.928 119.748C125.084 120.415 124.689 121.089 124.027 121.274C123.577 121.401 123.091 121.27 122.763 120.934C122.436 120.596 122.321 120.107 122.462 119.659C122.603 119.211 122.978 118.876 123.439 118.787ZM22.3829 103.378C27.3914 101.54 32.2475 101.805 36.4229 105.591C37.601 106.665 38.597 107.925 39.3712 109.319L39.3722 109.318C40.2321 110.495 41.1474 112.524 41.7794 113.887C42.0891 114.437 42.806 116.195 42.9972 116.838L43.377 117.753H43.378C43.4679 118.029 43.5553 118.296 43.63 118.559C43.798 119.149 43.8986 119.721 43.797 120.34C43.7631 120.546 43.7065 120.757 43.6231 120.977C43.5382 121.12 43.439 121.171 43.2979 121.288L42.9923 121.179C42.1913 120.3 41.6617 118.219 41.2784 117.012C40.6747 115.414 39.9337 113.894 39.3116 112.304L39.2296 112.2C38.7753 111.585 37.6611 109.579 37.2706 108.984L36.8575 108.485C34.7828 106.023 32.5101 104.134 29.1632 103.807C23.7339 103.276 18.289 106.41 15.8829 111.276C14.823 113.442 14.7952 120.438 11.8536 120.921C11.0146 120.43 11.5324 119.465 12.0958 119.001C12.5471 118.629 12.799 117.433 12.8858 116.868C13.8658 110.489 15.9083 105.754 22.3829 103.378ZM134.735 106.078C134.516 107.335 131.035 117.976 130.442 118.969L143.893 118.95C145.554 118.951 148.929 118.85 150.402 119.006C149.421 116.241 148.639 113.145 147.773 110.334C147.49 109.417 147.039 107.232 146.664 106.305L146.591 106.137C145.577 106.352 135.908 106.267 134.735 106.078ZM176.376 99.0712C176.05 99.7959 174.949 102.32 175.022 102.961C174.927 103.087 174.863 103.198 174.744 103.287C174.705 103.29 174.669 103.295 174.634 103.301C174.669 103.295 174.706 103.29 174.745 103.287C174.739 103.354 174.734 103.414 174.732 103.469C174.726 103.604 174.736 103.706 174.761 103.798L174.735 103.649C174.731 103.596 174.73 103.536 174.733 103.469C174.735 103.414 174.739 103.354 174.745 103.287C174.864 103.198 174.928 103.087 175.023 102.961C176.617 101.736 178.46 101.773 179.462 103.696C180.702 106.074 181.326 108.903 183.58 110.514C184.354 111.066 185.444 112.079 184.191 112.848C183.559 112.703 181.733 110.62 181.362 109.977C180.527 108.532 179.38 106.17 179.025 104.537C178.976 104.313 178.989 104.303 178.914 104.191L178.805 104.034C178.494 103.621 178.469 103.418 177.966 103.36C177.01 103.25 175.85 103.91 175.057 104.36C174.165 105.38 173.873 105.49 173.737 106.489L173.688 106.977C173.494 107.814 173.314 108.649 173.066 109.471L173.423 109.626C173.502 109.465 173.584 109.306 173.667 109.148C174.828 106.985 175.998 106.485 178.203 105.82L178.325 105.185C176.768 105.015 175.418 105.914 174.186 106.757C174.176 106.058 174.543 105.64 174.919 105.034C175.75 104.669 177.47 103.783 178.384 104.245C178.526 104.317 178.586 104.552 178.635 104.76L178.682 104.952L178.455 105.143C178.692 107.104 180.582 109.992 181.621 111.715C182.05 112.424 183.466 113.402 183.43 114.257C182.78 114.435 181.537 113.303 181.172 112.783C179.942 111.03 178.915 109.077 178.176 107.064C178.172 107.053 178.089 107.025 178.004 106.999L177.811 106.941C173.259 108.843 171.664 114.481 169.509 118.543L169.739 118.86C170.113 118.841 170.494 118.822 170.879 118.807C172.42 118.743 174.045 118.71 175.706 118.7C176.953 118.693 178.22 118.698 179.487 118.713C182.867 118.752 186.252 118.857 189.26 118.968L189.849 118.935L189.947 118.728C189.757 117.878 189.535 117.037 189.273 116.206C188.177 112.748 187.273 109.159 186.005 105.763C184.364 104.639 183.215 102.116 181.452 101.011C182.242 103.342 185.47 106.175 185.726 107.868L185.556 107.93C183.542 106.725 182.194 104.06 181.037 101.893L180.552 101C179.045 99.5435 178.152 99.6619 176.376 99.0712ZM11.4093 115.449C11.7776 115.59 11.7486 115.589 11.9688 115.923C12.0791 116.793 11.806 117.264 11.4474 118.079C11.2931 118.072 11.236 118.028 11.0821 117.969C10.8438 117.148 11.177 116.276 11.4093 115.449ZM176.643 110.842C176.733 110.909 176.832 110.974 176.893 111.072C177.542 112.108 179.39 115.882 178.312 116.788C177.562 116.338 177.266 113.18 176.664 112.297C176.121 113.476 175.873 115.209 175.193 116.268C175.1 116.413 174.857 116.361 174.608 116.366C173.49 115.656 176.101 111.675 176.643 110.842ZM176.775 115.054C177.149 115.825 177.172 116.3 176.401 116.769C176.044 116.622 176.049 116.648 175.806 116.355C175.78 115.831 176.213 115.376 176.537 114.922L176.775 115.054ZM178.045 107.917C178.343 110.279 179.608 112.036 180.683 114.071C180.871 114.429 180.902 115.67 180.603 116.069C179.64 115.862 178.568 111.365 177.856 110.441C177.126 109.496 176.919 109.396 175.99 110.271C175.365 111.284 173.626 115.194 172.864 115.423L172.751 115.142C172.89 113.558 174.322 110.831 175.317 109.595V109.594C175.928 108.917 177.201 108.203 178.017 107.694L178.045 107.917ZM26.7462 99.6005C33.5766 99.2875 40.6858 104.686 43.0518 110.979C43.2224 111.306 43.3609 111.595 43.4718 111.86C43.5456 112.037 43.607 112.204 43.6573 112.365C43.6825 112.446 43.7049 112.525 43.7247 112.603C43.8236 112.996 43.8575 113.368 43.8438 113.79C43.8411 113.874 43.8365 113.961 43.8302 114.05C43.8049 114.406 43.7522 114.805 43.6817 115.281H43.6808C43.3807 114.721 43.075 114.191 42.8429 113.6C40.1978 108.977 37.5262 103.995 31.9884 102.195C29.0089 101.595 28.7752 101.322 25.5968 101.392L25.088 101.549C22.6267 102.281 21.3713 102.309 18.9386 104.065L18.0772 102.66C20.8157 101.157 23.5568 99.7468 26.7462 99.6005ZM126.699 113.371C126.71 111.004 128.689 110.884 129.565 112.796L129.646 112.987H129.647C129.415 113.593 129.334 113.864 128.979 114.135C128.86 114.225 128.71 114.315 128.515 114.418L128.371 114.425C127.895 114.431 127.426 114.271 127.089 113.957C127.022 113.894 126.959 113.825 126.903 113.75C126.848 113.675 126.798 113.594 126.756 113.507L126.699 113.371ZM16.502 103.937C16.9878 104.033 17.0669 104.136 17.3897 104.452C17.5246 105.071 16.7805 105.816 16.3136 106.309C14.0627 108.684 13.504 110.914 12.5313 113.978C12.3181 114.129 12.0935 114.128 11.8536 114.098C11.1667 113.087 12.3813 109.92 12.8399 108.857C13.6648 106.947 14.811 105.181 16.502 103.937ZM73.6114 110.402C74.3524 110.097 75.2007 110.452 75.503 111.194C75.8049 111.936 75.4462 112.783 74.7032 113.083C73.9638 113.381 73.1223 113.024 72.8214 112.286C72.5209 111.548 72.8742 110.706 73.6114 110.402ZM121.93 109.361C123.399 108.596 124.511 110.001 123.858 111.511C122.585 112.245 122.273 112.074 121.398 111.385C121.273 111.286 121.135 111.178 120.983 111.06L120.53 111.033C119.221 110.985 116.334 110.992 116.031 110.562C117.23 109.621 120.42 110.802 121.93 109.361ZM176.47 100.265C177.387 100.289 178.367 100.508 179.235 100.798C181.046 102.662 181.364 104.14 182.743 106.201C183.522 107.367 184.718 108.676 185.592 109.899C185.637 110.393 185.59 110.397 185.354 110.821C181.43 108.609 181.662 104.998 179.013 102.228C178.518 101.71 176.915 101.363 176.257 101.042C176.154 100.564 176.146 100.817 176.47 100.265ZM42.4005 107.128C43.0323 107.313 42.8009 107.139 43.1778 107.582C43.3217 108.132 43.2483 108.298 43.1456 108.878C42.4047 108.571 42.37 107.819 42.4005 107.128ZM177.946 106.63C177.909 106.687 177.875 106.749 177.848 106.821L177.895 106.718C177.911 106.687 177.928 106.658 177.946 106.63ZM178.307 106.184C178.2 106.324 178.103 106.425 178.02 106.529C178.059 106.479 178.103 106.43 178.149 106.377C178.198 106.319 178.251 106.257 178.307 106.184L178.204 105.82H178.203L178.307 106.184ZM30.6739 97.4277C34.4886 97.4892 40.7264 102.004 42.3936 105.473C42.6095 105.922 42.5287 106.041 42.3604 106.45C41.4678 106.26 40.2151 104.548 39.4845 103.853C38.1238 102.56 36.6897 101.419 35.1524 100.344C33.903 99.4698 31.843 99.2711 30.6554 98.372C30.4661 97.8913 30.5294 98.033 30.6739 97.4277ZM135.983 101.722C136.033 102.711 135.392 104.462 135.076 105.492C138.087 105.503 143.384 105.349 146.193 105.582L146.305 105.356C145.857 104.433 145.476 102.75 145.374 101.721C144.585 101.721 143.781 101.701 142.99 101.69C142.32 101.705 140.944 101.752 139.601 101.771C138.929 101.781 138.265 101.784 137.701 101.772C137.138 101.761 136.674 101.734 136.403 101.686L135.983 101.722ZM61.8204 101.769C62.3325 101.602 62.8946 101.725 63.2901 102.091C63.6855 102.456 63.853 103.007 63.7276 103.531C63.6022 104.055 63.2036 104.47 62.6856 104.617C61.9052 104.838 61.0917 104.393 60.8556 103.617C60.6198 102.841 61.0489 102.019 61.8204 101.769ZM169.216 104.23L169.229 104.248L169.15 104.227C169.171 104.228 169.193 104.23 169.216 104.23ZM26.0489 97.1005C26.9727 97.0291 27.9859 96.8391 28.8136 97.1562C29.1947 97.6125 29.3852 98.5761 28.4747 98.6093C24.0661 98.769 19.5475 99.6903 16.2188 102.695C15.7766 103.217 15.3305 103.921 14.7472 104.144L14.547 104.022C14.5326 103.313 15.0416 102.49 15.4874 101.97C18.1844 98.8212 22.0496 97.447 26.0489 97.1005ZM161.704 99.8378C162.178 99.6337 162.724 99.7013 163.134 100.015C163.544 100.328 163.751 100.838 163.678 101.349C163.605 101.859 163.262 102.29 162.781 102.476C162.058 102.755 161.244 102.403 160.949 101.685C160.657 100.966 160.992 100.145 161.704 99.8378ZM26.3829 94.9599C30.0179 94.6791 33.6362 95.6447 36.7267 97.538C37.8621 98.2337 41.5679 100.278 40.4806 101.886C37.8668 100.126 37.6462 98.7529 33.6974 97.2705C32.3128 96.7621 30.8821 96.3888 29.4259 96.1552C28.3551 95.9836 26.8008 96.3046 26.1056 95.7167C26.1108 95.19 26.0474 95.4418 26.3829 94.9599ZM146.307 101.619H146.308C146.262 101.605 146.206 101.593 146.143 101.583C146.206 101.593 146.261 101.605 146.307 101.619ZM146.111 101.578C146.085 101.574 146.057 101.572 146.028 101.569C146.057 101.572 146.085 101.574 146.111 101.578ZM145.812 101.551C145.803 101.55 145.795 101.549 145.786 101.549C145.774 101.548 145.761 101.548 145.748 101.548C145.77 101.549 145.791 101.55 145.812 101.551ZM141 87.4121C140.389 88.3543 136.933 99.3542 136.529 100.894C136.678 100.945 136.844 101.01 136.993 101.043L137.392 101.017C139.489 100.902 143.105 101.015 145.125 101.016C144.605 99.6849 143.782 96.8475 143.337 95.4091C142.67 93.2536 141.249 89.4479 141 87.4121ZM180.415 87.9482C178.77 90.9804 178.315 93.9616 177.025 96.8857C181.316 96.8837 182.17 99.041 184.889 101.028C184.333 100.041 184.116 99.7169 183.405 98.8378C182.344 97.8833 179.929 96.8324 179.322 95.8935L179.36 95.7285C180.714 95.3183 182.636 96.9673 183.653 97.7705C182.62 95.3638 181.96 92.399 181.066 89.9062C180.944 89.5676 180.531 88.1566 180.415 87.9482ZM175.123 96.6074C175.317 96.7373 175.283 96.7505 175.426 96.9687L175.348 97.2578C174.984 97.6448 170.439 99.9609 169.681 100.38L169.461 100.236L169.457 99.9472C170.051 98.8664 173.887 97.0736 175.123 96.6074ZM40.0352 79.6855C41.4269 78.8005 42.4384 79.8967 43.0821 81.04C46.1551 81.1919 57.6623 80.5142 59.6866 81.7275C59.7401 81.8127 59.7879 81.8945 59.8311 81.9726C59.8744 82.0508 59.9134 82.1264 59.9474 82.2001C60.0834 82.4956 60.1489 82.7658 60.1778 83.0917C60.185 83.1733 60.1903 83.2587 60.1935 83.3486C60.1966 83.4383 60.1973 83.5332 60.1974 83.6337C60.1979 84.2314 60.2037 84.838 60.2101 85.4482C60.2164 86.0584 60.2238 86.6731 60.2276 87.2871C60.2314 87.9013 60.2318 88.5157 60.2247 89.125C60.2212 89.4292 60.2149 89.7327 60.2071 90.0341L60.1768 90.9335L60.1905 92.3964C60.1933 92.8841 60.1944 93.3725 60.1935 93.8603C60.874 94.6307 61.5841 95.2567 61.7657 96.0156C61.8383 96.3192 61.8263 96.6448 61.6944 97.0087C61.6449 97.1453 61.5785 97.2879 61.4933 97.4365C61.4649 97.4858 61.434 97.536 61.4015 97.5869C60.0927 98.7678 58.2248 98.7002 58.0763 96.6582C57.9934 95.5148 58.6969 94.8244 59.3966 94.0312C59.4011 91.9044 59.2928 88.8895 59.463 86.8466C59.4589 85.2019 59.4754 83.7808 59.3018 82.1416C57.0523 81.506 46.9975 81.7614 44.086 81.7705H44.0851C42.6094 82.0638 42.2674 82.8185 40.9376 83.4257C39.8297 83.0007 38.9312 82.413 39.1573 81.0292C39.2463 80.4772 39.5653 79.9886 40.0352 79.6855ZM20.464 96.414C20.7494 96.5112 20.7271 96.5369 20.9825 96.7246C21.2471 97.5901 19.6638 97.9366 18.9864 98.1816C18.6711 98.1436 18.8086 98.2053 18.5724 97.996C18.791 97.3481 19.8695 96.777 20.464 96.414ZM174.126 95.2089C174.636 95.1941 174.597 95.1055 174.897 95.3544C174.658 95.9434 171.848 97.4162 171.108 97.872C170.937 97.9445 170.832 97.9504 170.649 97.9863L170.593 97.7236C171.328 96.6471 172.936 95.7144 174.126 95.2089ZM117.18 78.1445C117.916 77.6881 118.908 78.3806 118.981 78.9736C119.424 82.5839 119.041 86.4811 119.104 90.1269C119.129 91.6588 118.724 92.8298 119.643 93.9531L119.845 94.1777L119.954 94.3056C120.214 94.6217 120.484 95.0527 120.566 95.4375C120.879 96.9042 118.582 98.0382 117.566 97.0253C116.799 96.2601 117.164 94.5446 117.976 93.8906L118.043 93.7558C118.698 92.149 118.091 83.9418 118.294 81.9375C118.341 81.4836 118.293 79.8145 118.264 79.2763L118.089 79.1884C117.639 78.9604 117.395 78.9023 117.164 78.4667L117.18 78.1445ZM22.1593 95.8066C22.8539 95.73 23.4456 95.6254 23.7423 96.371C23.4043 96.803 23.6171 96.6261 23.005 96.8173C22.458 96.9245 21.9595 97.1338 21.6143 96.625C21.7187 96.2053 21.8593 96.1154 22.1593 95.8066ZM118.097 72.746C118.842 72.5305 119.531 72.6028 120.313 72.6201C121.917 74.2072 123.507 75.9473 125.048 77.5976C125.206 80.763 125.141 85.1301 125.061 88.331L125.077 90.4912C125.084 91.2282 125.098 91.9633 125.136 92.6367L125.325 92.7167C125.916 92.9708 126.934 93.462 127.033 94.1855C127.504 97.598 122.331 97.012 124.034 93.5761C124.54 92.5544 124.263 91.2164 124.376 90.0146L124.356 89.831C124.316 89.3833 124.329 88.8087 124.32 88.3808C124.248 84.869 124.438 81.3305 124.244 77.8232C122.874 76.6155 121.722 74.9757 120.278 73.831C119.767 73.4254 118.214 73.3446 117.89 72.9531L118.097 72.746ZM52.255 90.5341C52.4047 90.547 52.9882 90.5939 53.0753 90.6445C54.0387 91.2059 54.3501 92.8409 53.1573 93.2959C52.6152 93.2893 52.4371 93.296 51.9142 93.1865C50.7338 92.3419 50.9478 91.0113 52.255 90.5341ZM65.9024 79.5009C66.4177 79.4911 66.8988 79.7593 67.1612 80.2031C67.4233 80.6467 67.4262 81.1978 67.169 81.6445C66.9119 82.0909 66.4343 82.365 65.919 82.3613C65.137 82.3552 64.505 81.7215 64.5001 80.9394C64.4956 80.1571 65.1203 79.5159 65.9024 79.5009ZM167.16 82.2285H167.161C167.104 82.2065 167.045 82.188 166.986 82.1728H166.985C167.044 82.188 167.103 82.2065 167.16 82.2285ZM132.063 76.0986C134.241 76.0879 134.381 77.7483 132.852 79.0429C130.999 78.9097 130.663 77.2845 132.063 76.0986ZM60.6036 72.3886C60.9212 71.9314 62.2941 71.6307 62.8155 71.9775C63.4978 72.4317 63.9795 73.3318 64.9298 73.3544C66.4649 73.5124 68.0635 73.4483 69.6241 73.4619C69.843 73.4514 70.0342 73.4394 70.2101 73.4316C70.7381 73.4081 71.1333 73.4269 71.7589 73.6699L71.9825 73.8906L71.9024 73.9267L71.7921 74.1347L71.296 74.1523C70.2068 74.3756 65.9095 74.3069 64.1056 74.5126C61.5021 77.5824 58.8816 74.8678 60.6036 72.3886ZM144.843 72.1679C145.554 72.1197 146.255 72.0355 146.835 72.5224C147.194 72.8271 147.411 73.267 147.434 73.7373C147.463 74.2642 147.266 74.779 146.894 75.1523C145.659 76.3729 144.478 75.1173 143.732 74.1611C139.611 74.1164 135.394 74.1687 131.264 74.1738C130.409 74.2162 127.481 74.5146 127.074 73.831C127.401 73.5921 127.887 73.4423 128.296 73.416C133.125 73.1054 139.11 73.8984 143.816 73.25C144.213 72.7323 144.351 72.6106 144.843 72.1679ZM126.254 68.4101C129.336 64.9072 130.511 71.3378 127.845 71.1777C127.093 71.1323 126.309 69.9624 125.911 69.3417C124.729 69.2876 118.96 69.4789 118.383 69.1367L118.391 68.8994C119 68.4509 124.701 68.6719 126.106 68.5839L126.254 68.4101ZM27.2852 64.5517C25.1867 63.1315 27.0783 59.5968 29.4278 61.291C30.0261 61.7224 30.1319 62.0531 30.8761 62.4794L31.3536 62.5166C33.7436 62.6767 36.1601 62.4818 38.5108 62.6015C40.6736 64.445 42.0936 66.6096 44.003 68.4423C53.2927 68.6823 62.6741 68.3361 71.9708 68.5449C72.3021 68.5524 72.457 68.5903 72.7198 68.7988L72.7257 69.0273C72.2871 69.2754 44.9235 69.2816 43.5411 68.9951C41.7628 67.3976 39.7565 64.5555 38.2882 63.3476C35.9929 63.2029 33.7057 63.3648 31.5401 63.33L30.6192 63.3017C29.8781 63.7784 28.5934 65.4365 27.2852 64.5517ZM66.1163 61.2548C66.822 61.8275 67.5153 62.7786 68.2335 63.0273L68.377 63.0673L69.4747 63.1318C70.8545 63.2138 72.8452 63.3631 73.3321 63.706L73.0577 63.6005L73.0128 63.7988C71.6291 63.9195 69.3825 63.8957 67.964 63.8105L67.7462 63.9267C66.5975 64.6024 64.5847 66.6059 63.837 63.9853C63.6613 63.3796 63.7562 62.7264 64.0977 62.1962C64.6021 61.4179 65.2554 61.4066 66.1163 61.2548ZM70.6798 54.4746C71.8308 54.7083 72.1211 55.2888 72.6993 56.2089C72.1442 56.9843 71.9045 57.2451 71.0811 57.7226C68.8787 57.3109 68.6348 55.4793 70.6798 54.4746ZM45.0352 51.58C45.4794 50.3383 47.0728 49.8676 48.7247 52.1552C50.3986 52.2714 62.2067 52.4127 62.9884 52.0742L63.0753 51.9111C64.8331 48.6662 68.0991 53.2738 64.8868 54.2998C64.2052 54.5174 63.3506 53.6254 62.9395 53.1455C58.9213 52.7951 52.6945 52.9735 48.5069 52.9296C47.8669 54.2164 45.9785 54.6881 45.3936 53.8134C45.2149 53.5458 45.0917 53.2696 45.0138 52.998C44.8545 52.6782 44.806 52.3084 44.8927 51.9501C44.9244 51.8195 44.9729 51.6952 45.0352 51.58ZM107.529 26.8134C107.638 30.3102 107.892 32.43 105.639 35.3623C105.333 35.8681 104.45 36.7661 104.36 37.3388C103.966 39.8729 104.235 42.9036 104.318 45.4609C106.162 46.0193 110.639 48.0129 112.661 48.8515C111.997 49.9876 111.309 51.34 110.682 52.5166L103.812 52.4648C97.9989 52.4597 92.1861 52.41 86.3741 52.3164C84.024 52.2991 81.6985 52.4035 79.3595 52.3671C82.3555 50.4576 90.2327 47.1974 93.6768 45.708C93.8905 43.6971 94.2777 38.1962 92.8829 36.791C89.4784 33.363 90.0294 31.3129 89.964 26.8554L90.3839 27.0302C97.0327 29.7888 100.961 29.528 107.529 26.8134ZM71.8468 40.8593C72.6547 40.633 73.4948 41.0957 73.7364 41.8994C73.9774 42.7026 73.532 43.5519 72.7335 43.8085C72.2033 43.9789 71.6219 43.8487 71.214 43.4697C70.8062 43.0906 70.6347 42.5205 70.7657 41.9794C70.8971 41.4381 71.3103 41.0096 71.8468 40.8593ZM74.4806 22.9697C75.5772 22.8976 76.2775 22.903 77.38 22.9462C77.5592 25.4841 77.4359 29.1825 77.4181 31.7949C80.1933 31.8595 83.0193 31.8215 85.8165 31.8769C85.9041 33.0295 85.9267 33.5825 85.8517 34.7285C82.0868 34.6805 78.3281 34.8344 74.5421 34.7226C74.3668 31.2102 74.4103 26.515 74.4806 22.9697ZM120.298 23.0029C121.313 22.9618 122.194 22.9795 123.212 23.0068C123.377 26.2668 123.286 31.3812 123.187 34.6972C120.39 34.7309 117.592 34.7404 114.794 34.7255L111.673 34.7246C111.662 33.7972 111.692 32.8157 111.703 31.8837C114.562 31.887 117.421 31.8754 120.278 31.8496C120.239 28.9008 120.246 25.9514 120.298 23.0029ZM97.0167 7.87788C104.355 6.99876 111.031 11.4539 115.26 17.1269C111.25 21.2968 106.412 25.0916 100.525 25.875C92.6422 26.3061 87.289 22.4328 82.171 16.7187C85.948 12.3968 91.1757 8.5284 97.0167 7.87788ZM111.51 16.6982C107.964 12.2868 102.647 9.87434 96.9991 10.4062C93.1836 11.0335 88.4058 13.5946 86.006 16.6191C87.9194 19.5682 92.4251 22.2743 95.8429 23.0126C97.4934 23.3691 98.8641 23.3386 100.524 23.2255C104.157 22.656 109.566 19.9249 111.51 16.6982ZM95.8595 11.9248L96.0587 12.1669C96.0382 13.0154 95.4918 13.9865 95.2755 14.831C94.4779 17.9468 95.9731 19.5849 98.8341 20.3388C103.573 19.2453 102.993 16.5705 102.122 12.9052C102.047 12.5905 102.352 12.3016 102.545 12.1005C103.826 11.8507 104.555 13.5881 104.994 14.5908C106.904 21.872 97.1715 25.3984 93.3956 19.5068C91.9532 17.2558 92.3725 13.3334 94.9884 11.9199C95.3738 11.8745 95.4674 11.892 95.8595 11.9248ZM98.5206 12.9179C101.297 12.8309 101.985 15.1375 99.7267 16.8427C97.4029 17.3243 96.1362 14.423 98.5206 12.9179ZM74.4845 0.0712409C78.266 0.0117183 82.0485 0.00384799 85.8302 0.0468268L85.8419 2.91206C84.9135 2.91955 77.9633 2.82862 77.42 3.01655L77.3341 3.28511C77.3519 6.19942 77.339 9.11424 77.295 12.0283C76.4113 11.9351 75.3514 11.9332 74.4493 11.9091C74.352 9.59917 74.2285 2.16313 74.4845 0.0712409ZM111.652 0.0849127C115.355 -0.0609861 119.384 0.0175821 123.097 0.0556159C123.076 3.91185 123.194 8.12121 123.044 11.9296C122.059 12.0417 121.196 12.0212 120.206 12.0175C120.104 9.11446 120.167 5.93192 120.167 3.00874C117.331 3.01737 114.493 2.98244 111.656 2.90425C111.605 1.91925 111.627 1.07211 111.652 0.0849127Z" fill="#333333"/>
<circle cx="30.9814" cy="156" r="2" fill="#333333"/>
<circle cx="76.9814" cy="124" r="2" fill="#333333"/>
<circle cx="73.9814" cy="111" r="2" fill="#333333"/>
<ellipse cx="61.9814" cy="103.5" rx="2" ry="1.5" fill="#333333"/>
<circle cx="59.9814" cy="95.9999" r="2" fill="#333333"/>
<circle cx="52.9814" cy="91.9999" r="2" fill="#333333"/>
<circle cx="41.9814" cy="80.9999" r="2" fill="#333333"/>
<circle cx="28.9814" cy="62.9999" r="2" fill="#333333"/>
<circle cx="65.9814" cy="80.9999" r="2" fill="#333333"/>
<circle cx="61.9814" cy="73.9999" r="2" fill="#333333"/>
<circle cx="64.9814" cy="62.9999" r="2" fill="#333333"/>
<circle cx="70.9814" cy="55.9999" r="3" fill="#333333"/>
<ellipse cx="132.981" cy="77.4999" rx="2" ry="1.5" fill="#333333"/>
<circle cx="194.981" cy="136" r="2" fill="#333333"/>
<circle cx="124.981" cy="132" r="2" fill="#333333"/>
<circle cx="123.981" cy="120" r="2" fill="#333333"/>
<ellipse cx="127.481" cy="113" rx="1.5" ry="2" fill="#333333"/>
<circle cx="117.981" cy="95.9999" r="2" fill="#333333"/>
<circle cx="124.981" cy="93.9999" r="2" fill="#333333"/>
<circle cx="155.481" cy="101.5" r="2.5" fill="#333333"/>
<circle cx="120.981" cy="167" r="2" fill="#333333"/>
<ellipse cx="52.9814" cy="185.5" rx="2" ry="1.5" fill="#333333"/>
<circle cx="63.9814" cy="180" r="2" fill="#333333"/>
<circle cx="81.9814" cy="167" r="2" fill="#333333"/>
<circle cx="78.9814" cy="157" r="2" fill="#333333"/>
<circle cx="73.9814" cy="137" r="2" fill="#333333"/>
<circle cx="84.9814" cy="176" r="2" fill="#333333"/>
<circle cx="93.9814" cy="187" r="2" fill="#333333"/>
<circle cx="160.481" cy="184.5" r="2.5" fill="#333333"/>
<ellipse cx="156.481" cy="164" rx="2.5" ry="3" fill="#333333"/>
<circle cx="154.981" cy="148" r="2" fill="#333333"/>
<circle cx="168.981" cy="157" r="3" fill="#333333"/>
<circle cx="165.981" cy="177" r="3" fill="#333333"/>
<circle cx="89.9814" cy="193" r="2" fill="#333333"/>
<circle cx="56.4814" cy="160.5" r="2.5" fill="#333333"/>
<circle cx="48.4814" cy="169.5" r="2.5" fill="#333333"/>
<ellipse cx="27.9814" cy="179.5" rx="3" ry="2.5" fill="#333333"/>
</svg>
